<svg xmlns="http://www.w3.org/2000/svg" viewBox="0 0 30 30" width="30px" height="30px"><path fill="#fff" d="M2.5 2.5H27.5V27.5H2.5z"/><path fill="#788b9c" d="M27,3v24H3V3H27 M28,2H2v26h26V2L28,2z"/><path fill="#f78f8f" d="M2.5 2.5H27.5V7.5H2.5z"/><path fill="#c74343" d="M27,3v4H3V3H27 M28,2H2v6h26V2L28,2z"/><path fill="#c5d4de" d="M10 11H12V13H10zM14 11H16V13H14zM18 11H20V13H18zM22 11H24V13H22zM6 15H8V17H6zM10 15H12V17H10zM14 15H16V17H14zM18 15H20V17H18zM22 15H24V17H22zM6 19H8V21H6zM10 19H12V21H10zM14 19H16V21H14zM18 19H20V21H18z"/><path fill="#e1ebf2" d="M3 25H27V27H3z"/></svg>